<mxfile host="app.diagrams.net" modified="2024-06-23T13:08:12.346Z" agent="Mozilla/5.0 (X11; Linux x86_64) AppleWebKit/537.36 (KHTML, like Gecko) Chrome/126.0.0.0 Safari/537.36" etag="46rLyheto8NDPz9zDHyk" version="24.6.2" type="device">
  <diagram name="Page-1" id="H2cvFyBjsEhFZfbRXfGY">
    <mxGraphModel dx="1016" dy="641" grid="1" gridSize="10" guides="1" tooltips="1" connect="1" arrows="1" fold="1" page="1" pageScale="1" pageWidth="850" pageHeight="1100" math="0" shadow="0">
      <root>
        <mxCell id="0" />
        <mxCell id="1" parent="0" />
        <mxCell id="nzxhtmggCCQ8Fn4LYs6D-2" value="" style="endArrow=none;dashed=1;html=1;dashPattern=1 3;strokeWidth=2;rounded=0;" edge="1" parent="1">
          <mxGeometry width="50" height="50" relative="1" as="geometry">
            <mxPoint x="400" y="410" as="sourcePoint" />
            <mxPoint x="400" y="40" as="targetPoint" />
          </mxGeometry>
        </mxCell>
        <mxCell id="nzxhtmggCCQ8Fn4LYs6D-3" value="Dışsal" style="text;html=1;align=center;verticalAlign=middle;resizable=0;points=[];autosize=1;strokeColor=none;fillColor=none;fontSize=18;" vertex="1" parent="1">
          <mxGeometry x="200" y="90" width="70" height="40" as="geometry" />
        </mxCell>
        <mxCell id="nzxhtmggCCQ8Fn4LYs6D-4" value="İçsel" style="text;html=1;align=center;verticalAlign=middle;resizable=0;points=[];autosize=1;strokeColor=none;fillColor=none;fontSize=18;" vertex="1" parent="1">
          <mxGeometry x="520" y="90" width="60" height="40" as="geometry" />
        </mxCell>
        <mxCell id="nzxhtmggCCQ8Fn4LYs6D-5" value="" style="ellipse;whiteSpace=wrap;html=1;aspect=fixed;strokeColor=none;fillStyle=dots;fillColor=#000000;" vertex="1" parent="1">
          <mxGeometry x="60" y="195" width="90" height="90" as="geometry" />
        </mxCell>
        <mxCell id="nzxhtmggCCQ8Fn4LYs6D-6" value="Koşullar" style="text;html=1;align=center;verticalAlign=middle;resizable=0;points=[];autosize=1;strokeColor=none;fillColor=none;" vertex="1" parent="1">
          <mxGeometry x="75" y="150" width="60" height="30" as="geometry" />
        </mxCell>
        <mxCell id="nzxhtmggCCQ8Fn4LYs6D-8" value="" style="endArrow=none;html=1;rounded=0;" edge="1" parent="1" source="nzxhtmggCCQ8Fn4LYs6D-13">
          <mxGeometry width="50" height="50" relative="1" as="geometry">
            <mxPoint x="120" y="240" as="sourcePoint" />
            <mxPoint x="680" y="240" as="targetPoint" />
          </mxGeometry>
        </mxCell>
        <mxCell id="nzxhtmggCCQ8Fn4LYs6D-10" value="Dürtüler" style="text;html=1;align=center;verticalAlign=middle;resizable=0;points=[];autosize=1;strokeColor=none;fillColor=none;" vertex="1" parent="1">
          <mxGeometry x="650" y="150" width="60" height="30" as="geometry" />
        </mxCell>
        <mxCell id="nzxhtmggCCQ8Fn4LYs6D-12" value="" style="endArrow=none;html=1;rounded=0;" edge="1" parent="1" target="nzxhtmggCCQ8Fn4LYs6D-11">
          <mxGeometry width="50" height="50" relative="1" as="geometry">
            <mxPoint x="120" y="240" as="sourcePoint" />
            <mxPoint x="680" y="240" as="targetPoint" />
          </mxGeometry>
        </mxCell>
        <mxCell id="nzxhtmggCCQ8Fn4LYs6D-11" value="" style="ellipse;whiteSpace=wrap;html=1;fillStyle=solid;fillColor=#000000;strokeColor=none;" vertex="1" parent="1">
          <mxGeometry x="340" y="230" width="20" height="20" as="geometry" />
        </mxCell>
        <mxCell id="nzxhtmggCCQ8Fn4LYs6D-14" value="" style="endArrow=none;html=1;rounded=0;" edge="1" parent="1" source="nzxhtmggCCQ8Fn4LYs6D-15" target="nzxhtmggCCQ8Fn4LYs6D-13">
          <mxGeometry width="50" height="50" relative="1" as="geometry">
            <mxPoint x="390" y="240" as="sourcePoint" />
            <mxPoint x="680" y="240" as="targetPoint" />
          </mxGeometry>
        </mxCell>
        <mxCell id="nzxhtmggCCQ8Fn4LYs6D-13" value="" style="ellipse;whiteSpace=wrap;html=1;aspect=fixed;strokeColor=none;fillStyle=dots;fillColor=#000000;" vertex="1" parent="1">
          <mxGeometry x="635" y="195" width="90" height="90" as="geometry" />
        </mxCell>
        <mxCell id="nzxhtmggCCQ8Fn4LYs6D-16" value="" style="endArrow=none;html=1;rounded=0;" edge="1" parent="1" source="nzxhtmggCCQ8Fn4LYs6D-11" target="nzxhtmggCCQ8Fn4LYs6D-15">
          <mxGeometry width="50" height="50" relative="1" as="geometry">
            <mxPoint x="390" y="240" as="sourcePoint" />
            <mxPoint x="635" y="240" as="targetPoint" />
          </mxGeometry>
        </mxCell>
        <mxCell id="nzxhtmggCCQ8Fn4LYs6D-15" value="" style="ellipse;whiteSpace=wrap;html=1;fillStyle=solid;fillColor=#000000;strokeColor=none;" vertex="1" parent="1">
          <mxGeometry x="440" y="230" width="20" height="20" as="geometry" />
        </mxCell>
        <mxCell id="nzxhtmggCCQ8Fn4LYs6D-17" value="Düşünceler" style="text;html=1;align=center;verticalAlign=middle;resizable=0;points=[];autosize=1;strokeColor=none;fillColor=none;" vertex="1" parent="1">
          <mxGeometry x="410" y="195" width="80" height="30" as="geometry" />
        </mxCell>
        <mxCell id="nzxhtmggCCQ8Fn4LYs6D-18" value="Eylemler" style="text;html=1;align=center;verticalAlign=middle;resizable=0;points=[];autosize=1;strokeColor=none;fillColor=none;" vertex="1" parent="1">
          <mxGeometry x="300" y="195" width="70" height="30" as="geometry" />
        </mxCell>
        <mxCell id="nzxhtmggCCQ8Fn4LYs6D-19" value="" style="endArrow=ERmany;startArrow=ERmany;html=1;rounded=0;startFill=0;endFill=0;" edge="1" parent="1">
          <mxGeometry width="50" height="50" relative="1" as="geometry">
            <mxPoint x="350" y="280" as="sourcePoint" />
            <mxPoint x="450" y="280" as="targetPoint" />
          </mxGeometry>
        </mxCell>
        <mxCell id="nzxhtmggCCQ8Fn4LYs6D-21" value="Dürüstlük" style="edgeLabel;html=1;align=center;verticalAlign=middle;resizable=0;points=[];" vertex="1" connectable="0" parent="nzxhtmggCCQ8Fn4LYs6D-19">
          <mxGeometry x="-0.02" y="-4" relative="1" as="geometry">
            <mxPoint as="offset" />
          </mxGeometry>
        </mxCell>
        <mxCell id="nzxhtmggCCQ8Fn4LYs6D-22" value="" style="endArrow=none;dashed=1;html=1;dashPattern=1 3;strokeWidth=2;rounded=0;entryX=0.5;entryY=1;entryDx=0;entryDy=0;" edge="1" parent="1" target="nzxhtmggCCQ8Fn4LYs6D-11">
          <mxGeometry width="50" height="50" relative="1" as="geometry">
            <mxPoint x="350" y="320" as="sourcePoint" />
            <mxPoint x="450" y="310" as="targetPoint" />
          </mxGeometry>
        </mxCell>
        <mxCell id="nzxhtmggCCQ8Fn4LYs6D-23" value="" style="endArrow=none;dashed=1;html=1;dashPattern=1 3;strokeWidth=2;rounded=0;entryX=0.5;entryY=1;entryDx=0;entryDy=0;" edge="1" parent="1" target="nzxhtmggCCQ8Fn4LYs6D-15">
          <mxGeometry width="50" height="50" relative="1" as="geometry">
            <mxPoint x="450" y="320" as="sourcePoint" />
            <mxPoint x="360" y="260" as="targetPoint" />
          </mxGeometry>
        </mxCell>
        <mxCell id="nzxhtmggCCQ8Fn4LYs6D-24" value="" style="ellipse;whiteSpace=wrap;html=1;aspect=fixed;strokeColor=none;fillStyle=dots;fillColor=#000000;" vertex="1" parent="1">
          <mxGeometry x="660" y="370" width="30" height="30" as="geometry" />
        </mxCell>
        <mxCell id="nzxhtmggCCQ8Fn4LYs6D-25" value="" style="ellipse;whiteSpace=wrap;html=1;aspect=fixed;strokeColor=none;fillStyle=solid;fillColor=#000000;" vertex="1" parent="1">
          <mxGeometry x="660" y="410" width="30" height="30" as="geometry" />
        </mxCell>
        <mxCell id="nzxhtmggCCQ8Fn4LYs6D-26" value="Kontrol edilemeyenler" style="text;html=1;align=left;verticalAlign=middle;resizable=0;points=[];autosize=1;strokeColor=none;fillColor=none;" vertex="1" parent="1">
          <mxGeometry x="693" y="370" width="130" height="30" as="geometry" />
        </mxCell>
        <mxCell id="nzxhtmggCCQ8Fn4LYs6D-27" value="Kontrol edilebilenler" style="text;html=1;align=left;verticalAlign=middle;resizable=0;points=[];autosize=1;strokeColor=none;fillColor=none;" vertex="1" parent="1">
          <mxGeometry x="693" y="410" width="120" height="30" as="geometry" />
        </mxCell>
        <mxCell id="nzxhtmggCCQ8Fn4LYs6D-28" value="" style="endArrow=classic;startArrow=classic;html=1;rounded=0;" edge="1" parent="1">
          <mxGeometry width="50" height="50" relative="1" as="geometry">
            <mxPoint x="450" y="320" as="sourcePoint" />
            <mxPoint x="680" y="320" as="targetPoint" />
          </mxGeometry>
        </mxCell>
        <mxCell id="nzxhtmggCCQ8Fn4LYs6D-29" value="İç huzursuzluk" style="edgeLabel;html=1;align=center;verticalAlign=middle;resizable=0;points=[];" vertex="1" connectable="0" parent="nzxhtmggCCQ8Fn4LYs6D-28">
          <mxGeometry x="-0.0435" y="2" relative="1" as="geometry">
            <mxPoint as="offset" />
          </mxGeometry>
        </mxCell>
        <mxCell id="nzxhtmggCCQ8Fn4LYs6D-30" value="" style="endArrow=classic;startArrow=classic;html=1;rounded=0;" edge="1" parent="1">
          <mxGeometry width="50" height="50" relative="1" as="geometry">
            <mxPoint x="110" y="320" as="sourcePoint" />
            <mxPoint x="350" y="320" as="targetPoint" />
          </mxGeometry>
        </mxCell>
        <mxCell id="nzxhtmggCCQ8Fn4LYs6D-31" value="İnkar" style="edgeLabel;html=1;align=center;verticalAlign=middle;resizable=0;points=[];" vertex="1" connectable="0" parent="nzxhtmggCCQ8Fn4LYs6D-30">
          <mxGeometry x="-0.0435" y="2" relative="1" as="geometry">
            <mxPoint as="offset" />
          </mxGeometry>
        </mxCell>
      </root>
    </mxGraphModel>
  </diagram>
</mxfile>
